<svg width="41" height="39" viewBox="0 0 41 39" fill="none" xmlns="http://www.w3.org/2000/svg">
<path d="M20.4479 33.2957C28.4201 33.2957 34.8829 27.0625 34.8829 19.3734C34.8829 11.6844 28.4201 5.45117 20.4479 5.45117C12.4756 5.45117 6.0127 11.6844 6.0127 19.3734C6.0127 27.0625 12.4756 33.2957 20.4479 33.2957Z" stroke="black" stroke-width="2.2"/>
<path d="M1.625 19.1104H9.35427" stroke="black" stroke-width="2" stroke-linecap="round"/>
<path d="M20.4478 37.75L20.4478 30.2954" stroke="black" stroke-width="2" stroke-linecap="round"/>
<path d="M31.375 19.1104H39.375" stroke="black" stroke-width="2" stroke-linecap="round"/>
<path d="M20.4478 8.70508L20.4478 1.25044" stroke="black" stroke-width="2" stroke-linecap="round"/>
<path d="M16.5251 20.1358C17.5161 20.1358 18.3193 19.361 18.3193 18.4053C18.3193 17.4496 17.5161 16.6748 16.5251 16.6748C15.5342 16.6748 14.731 17.4496 14.731 18.4053C14.731 19.361 15.5342 20.1358 16.5251 20.1358Z" stroke="black" stroke-width="1.1"/>
<path d="M22.8939 19.3425C24.3442 19.3425 25.5198 18.2086 25.5198 16.8099C25.5198 15.4112 24.3442 14.2773 22.8939 14.2773C21.4437 14.2773 20.2681 15.4112 20.2681 16.8099C20.2681 18.2086 21.4437 19.3425 22.8939 19.3425Z" stroke="black" stroke-width="1.2"/>
<path d="M13.3262 23.6695C13.3262 21.8678 14.8405 20.4072 16.7085 20.4072C17.5664 20.4072 18.3496 20.7152 18.946 21.2229" stroke="black" stroke-width="1.1" stroke-linecap="round"/>
<path d="M27.2437 24.2318C27.2437 21.9475 25.3237 20.0957 22.9553 20.0957C20.587 20.0957 18.667 21.9475 18.667 24.2318" stroke="black" stroke-width="1.2" stroke-linecap="round"/>
</svg>
